<?xml version="1.0" encoding="utf-8"?>
<svg viewBox="0 0 16 16" xmlns="http://www.w3.org/2000/svg" xmlns:bx="https://boxy-svg.com">
  <defs>
    <bx:grid x="0" y="0" width="1" height="1"/>
  </defs>
  <g>
    <path d="M 9.622 5.131 C 9.093 4.825 8.534 4.681 7.986 4.674 L 7.986 3.265 C 10.171 3.293 12.185 4.846 12.63 7.116 L 11.245 7.38 C 11.053 6.444 10.469 5.619 9.622 5.131 Z" style="fill: rgb(214, 108, 59);" bx:origin="-1.827 -0.696"/>
    <path d="M 10.985 2.772 C 10.015 2.213 8.988 1.953 7.986 1.946 L 7.986 0.4 C 11.497 0.431 14.739 2.926 15.441 6.576 L 13.92 6.868 C 13.581 5.163 12.523 3.661 10.985 2.772 Z" style="fill: rgb(214, 108, 59);" bx:origin="-1.138 0"/>
    <path d="M -7.552 -9.969 C -8.082 -10.274 -8.642 -10.418 -9.189 -10.427 L -9.189 -11.835 C -7.003 -11.806 -4.99 -10.254 -4.546 -7.985 L -5.93 -7.719 C -6.122 -8.656 -6.706 -9.48 -7.552 -9.969 Z" style="fill: rgb(214, 108, 59);" transform="matrix(-0.999874, -0.015855, 0.015855, -0.999874, -1.000917, 0.795802)" bx:origin="1.872 2.973"/>
    <path d="M -6.191 -12.33 C -7.161 -12.89 -8.188 -13.15 -9.19 -13.156 L -9.19 -14.702 C -5.678 -14.671 -2.436 -12.175 -1.735 -8.526 L -3.256 -8.234 C -3.596 -9.94 -4.652 -11.442 -6.191 -12.33 Z" style="fill: rgb(214, 108, 59);" transform="matrix(-0.999874, -0.015855, 0.015855, -0.999874, -1.001232, 0.793621)" bx:origin="1.166 2.335"/>
  </g>
</svg>